<?xml version="1.0" encoding="UTF-8" standalone="no"?>
<svg
   xmlns:dc="http://purl.org/dc/elements/1.1/"
   xmlns:cc="http://creativecommons.org/ns#"
   xmlns:rdf="http://www.w3.org/1999/02/22-rdf-syntax-ns#"
   xmlns:svg="http://www.w3.org/2000/svg"
   xmlns="http://www.w3.org/2000/svg"
   xmlns:sodipodi="http://sodipodi.sourceforge.net/DTD/sodipodi-0.dtd"
   xmlns:inkscape="http://www.inkscape.org/namespaces/inkscape"
   version="1.1"
   x="0px"
   y="0px"
   viewBox="0 0 90.791016 90"
   enable-background="new 0 0 100 100"
   xml:space="preserve"
   id="svg8068"
   inkscape:version="0.91 r13725"
   sodipodi:docname="odd-advice-logo.svg"
   width="90.791016"
   height="90"
   style="fill:#000000"><metadata
     id="metadata8096"><rdf:RDF><cc:Work
         rdf:about=""><dc:format>image/svg+xml</dc:format><dc:type
           rdf:resource="http://purl.org/dc/dcmitype/StillImage" /><dc:title></dc:title></cc:Work></rdf:RDF></metadata><defs
     id="defs8094"><inkscape:perspective
       sodipodi:type="inkscape:persp3d"
       inkscape:vp_x="0 : 50 : 1"
       inkscape:vp_y="0 : 1000 : 0"
       inkscape:vp_z="100 : 50 : 1"
       inkscape:persp3d-origin="50 : 33.333333 : 1"
       id="perspective8118" /></defs><sodipodi:namedview
     pagecolor="#ffffff"
     bordercolor="#666666"
     borderopacity="1"
     objecttolerance="10"
     gridtolerance="10"
     guidetolerance="10"
     inkscape:pageopacity="0"
     inkscape:pageshadow="2"
     inkscape:window-width="1280"
     inkscape:window-height="741"
     id="namedview8092"
     showgrid="false"
     fit-margin-top="0"
     fit-margin-left="0"
     fit-margin-right="0"
     fit-margin-bottom="0"
     inkscape:zoom="0.69"
     inkscape:cx="207.19824"
     inkscape:cy="-190.8715"
     inkscape:window-x="-8"
     inkscape:window-y="-8"
     inkscape:window-maximized="1"
     inkscape:current-layer="svg8068"
     showguides="false"><sodipodi:guide
       position="-76.811594,133.69565"
       orientation="-0.70710678,0.70710678"
       id="guide12859" /></sodipodi:namedview><path
     style="fill:#ffd42a;fill-opacity:1;fill-rule:evenodd;stroke:none;stroke-width:1px;stroke-linecap:butt;stroke-linejoin:miter;stroke-opacity:1"
     d="M 44.810547 3.3613281 L 44.810547 3.5429688 L 28.181641 7.7597656 L 16.140625 21.339844 L 12.810547 39.785156 L 20.496094 55.414062 L 34.074219 72.578125 L 44.871094 84.388672 L 44.871094 85.041016 L 45.167969 84.714844 L 45.466797 85.041016 L 45.466797 84.388672 L 56.263672 72.578125 L 69.841797 55.414062 L 77.527344 39.785156 L 74.197266 21.339844 L 62.15625 7.7597656 L 45.527344 3.5429688 L 45.527344 3.3613281 L 45.167969 3.453125 L 44.810547 3.3613281 z "
     id="path12839-5" /><symbol
     viewBox="-9.858 -9.858 19.716 19.716"
     id="symbol8070"
     transform="translate(-4.7167969,-5)"><path
       stroke-miterlimit="10"
       d="M 8.573,0 C 8.573,-4.735 4.735,-8.573 0,-8.573 -4.735,-8.573 -8.573,-4.735 -8.573,0 -8.573,4.735 -4.735,8.573 0,8.573 4.735,8.573 8.573,4.735 8.573,0 Z"
       id="path8072"
       inkscape:connector-curvature="0"
       style="fill:#000000;stroke:#000000;stroke-width:2.56990004;stroke-miterlimit:10" /><path
       stroke-miterlimit="10"
       d="m 2.858,0 c 0,-1.578 -1.279,-2.858 -2.858,-2.858 -1.578,0 -2.858,1.279 -2.858,2.858 0,1.578 1.279,2.858 2.858,2.858 1.578,0 2.858,-1.28 2.858,-2.858 z"
       id="path8074"
       inkscape:connector-curvature="0"
       style="fill:#000000;stroke:#000000;stroke-width:2.56990004;stroke-miterlimit:10" /></symbol><symbol
     viewBox="-5.525 -16.49 11.051 32.981"
     id="symbol8076"
     transform="translate(-4.7167969,-5)"><path
       stroke-miterlimit="10"
       d="m 4.526,-15.49 -9.051,0 0,30.981 1.559,0 c 4.138,0 7.492,-3.354 7.492,-7.492 l 0,-23.489 z"
       id="path8078"
       inkscape:connector-curvature="0"
       style="fill:#000000;stroke:#000000;stroke-width:2;stroke-miterlimit:10" /></symbol><g
     display="none"
     id="g8080"
     style="display:none"
     transform="translate(-4.7167969,-5)"><rect
       x="-1202.374"
       y="-413.37701"
       display="inline"
       width="1328.934"
       height="1233.377"
       id="rect8082"
       style="display:inline;fill:#000000" /></g><path
     d="m 45.210937,0 c -8.236,0.017 -15.821093,2.8322031 -21.871093,7.533203 l -3.128907,2.732422 c -6.652,6.525 -10.7836709,15.610578 -10.7636719,25.642578 0.016,7.853 5.5128599,17.826094 12.1308599,26.996094 l 2.410156,3.238281 c 9.172,12.013 19.432078,21.946453 20.205078,22.689453 L 45.40625,90 46.615234,88.826172 c 0.768,-0.745 10.93225,-10.673594 20.03125,-22.683594 l 2.392578,-3.236328 c 6.606,-9.224 12.096079,-19.262531 12.080079,-27.144531 -0.02,-9.668 -3.892391,-18.439906 -10.150391,-24.878907 L 67.925781,8.080078 C 61.747781,3.0320781 53.863156,0 45.285156,0 l -0.07422,0 z m 0.01367,6.376953 0.06055,0 c 6.94818,0 13.333711,2.47748 18.337891,6.603516 l 2.464844,2.291015 c 5.06898,5.262985 8.204503,12.43174 8.220703,20.333985 0.01296,6.442439 -4.432344,14.648164 -9.783203,22.1875 l -1.9375,2.644531 c -7.370191,9.816501 -15.60253,17.934034 -16.22461,18.542969 l -0.980469,0.958984 -0.982421,-0.955078 C 43.77426,78.377075 35.464476,70.256454 28.035156,60.4375 l -1.953125,-2.644531 c -5.36058,-7.495198 -9.811259,-15.647672 -9.824219,-22.066407 -0.0162,-8.199764 3.328677,-15.625704 8.716797,-20.958984 l 2.533203,-2.234375 c 4.9005,-3.842414 11.04564,-6.14236 17.716797,-6.15625 z"
     id="path8090"
     inkscape:connector-curvature="0"
     style="fill:#2b1100" /><path
     style="opacity:1;fill:#2b1100;fill-opacity:1;stroke:none;stroke-width:15;stroke-linecap:round;stroke-linejoin:round;stroke-miterlimit:4;stroke-dasharray:none;stroke-opacity:1"
     d="m 6,19.09375 9.125,8.607422 c -1.768829,2.856943 -2.708133,6.149579 -2.712891,9.509766 -6.09e-4,10.004257 8.109025,18.114765 18.113282,18.115234 3.23721,-0.008 6.413119,-0.883453 9.197265,-2.535156 l 5.525391,6.705078 5.951172,-6.791016 c 2.813112,1.704189 6.037139,2.610293 9.326172,2.621094 10.00502,6.09e-4 18.115843,-8.110214 18.115234,-18.115234 -0.0079,-3.403451 -0.974535,-6.73582 -2.789063,-9.615235 l 8.939453,-8.501953 -25.333984,0 0,0.05859 c -5.625434,0.329603 -10.777071,3.258441 -13.9375,7.923828 -3.207118,-4.741754 -8.466905,-7.688481 -14.185547,-7.947266 l 0,-0.03516 z M 60.869141,24.625 c 7.075216,-3.54e-4 12.810901,5.735331 12.810546,12.810547 3.55e-4,7.075216 -5.73533,12.810901 -12.810546,12.810547 C 53.794687,50.24537 48.060192,44.510001 48.060547,37.435547 48.060192,30.361093 53.794687,24.625724 60.869141,24.625 Z m -43.46875,13.660156 6.322265,0 c -7.25e-4,0.01562 -0.0014,0.03124 -0.002,0.04687 -2.71e-4,3.466994 2.81035,6.277615 6.277344,6.277344 3.466994,2.71e-4 6.277615,-2.81035 6.277344,-6.277344 -6.08e-4,-0.01563 -0.0013,-0.03125 -0.002,-0.04687 l 6.675782,0 C 42.502463,45.010012 36.92131,50.238593 30.181641,50.246094 23.436668,50.245835 17.847409,45.0153 17.400391,38.285156 Z"
     id="path8152"
     inkscape:connector-curvature="0"
     sodipodi:nodetypes="ccccccccccccccccccccccccccccccc" /><circle
     style="opacity:1;fill:#ff0000;fill-opacity:1;stroke:none;stroke-width:15;stroke-linecap:round;stroke-linejoin:round;stroke-miterlimit:4;stroke-dasharray:none;stroke-opacity:1"
     id="path8116-7"
     cx="60.883469"
     cy="37.455372"
     r="12.895287" /><path
     inkscape:connector-curvature="0"
     id="path8288"
     d="m 61.778847,34.489044 c -1.1154,0 -2.12916,0.31548 -2.94624,0.9042 0.69036,-1.80972 2.32848,-2.97396 4.62924,-3.24192 0.5544,-0.06864 1.00848,-0.09372 1.41372,-0.06864 0.08844,0.0079 0.1782,-0.02772 0.24552,-0.08976 0.066,-0.06204 0.10296,-0.14916 0.10296,-0.24024 l 0,-2.30472 c 0,-0.17424 -0.13464,-0.3168 -0.30624,-0.32868 -0.41448,-0.02904 -0.97812,-0.01188 -1.52064,0.07128 -2.33112,0.17556 -4.24776,0.97284 -5.69316,2.37072 -1.79784,1.69356 -2.78784,4.22664 -2.78784,7.13196 0,4.25832 2.4156,7.0092 6.15252,7.0092 3.29076,0 5.77236,-2.51196 5.77236,-5.84496 -0.0026,-3.1614 -2.08428,-5.36844 -5.0622,-5.36844 z m -0.7128,8.36616 c -1.85328,0 -2.55552,-1.749 -2.5938,-3.3792 0,-0.3168 0.05016,-0.56628 0.15708,-0.78276 0.4158,-0.85404 1.28832,-1.4058 2.22288,-1.4058 1.45464,0 2.3562,1.04808 2.3562,2.73504 0,1.69488 -0.86196,2.83272 -2.14236,2.83272 z"
     style="fill:#ffffff" /><rect
     style="opacity:1;fill:#2b1100;fill-opacity:1;stroke:none;stroke-width:15;stroke-linecap:round;stroke-linejoin:round;stroke-miterlimit:4;stroke-dasharray:none;stroke-opacity:1"
     id="rect12857"
     width="72.826088"
     height="7.246377"
     x="8.9824638"
     y="72.978271"
     rx="5"
     ry="5" /></svg>