<?xml version="1.0" encoding="UTF-8" standalone="no"?>
<svg
   xmlns:dc="http://purl.org/dc/elements/1.1/"
   xmlns:cc="http://creativecommons.org/ns#"
   xmlns:rdf="http://www.w3.org/1999/02/22-rdf-syntax-ns#"
   xmlns:svg="http://www.w3.org/2000/svg"
   xmlns="http://www.w3.org/2000/svg"
   xmlns:sodipodi="http://sodipodi.sourceforge.net/DTD/sodipodi-0.dtd"
   xmlns:inkscape="http://www.inkscape.org/namespaces/inkscape"
   version="1.1"
   x="0px"
   y="0px"
   viewBox="0 0 31.472656 99.999542"
   enable-background="new 0 0 100 100"
   xml:space="preserve"
   id="svg8068"
   inkscape:version="0.91 r13725"
   sodipodi:docname="team-jackd-logo-mustard.svg"
   width="31.472656"
   height="99.999542"><metadata
     id="metadata8076"><rdf:RDF><cc:Work
         rdf:about=""><dc:format>image/svg+xml</dc:format><dc:type
           rdf:resource="http://purl.org/dc/dcmitype/StillImage" /><dc:title></dc:title></cc:Work></rdf:RDF></metadata><defs
     id="defs8074" /><sodipodi:namedview
     pagecolor="#ffffff"
     bordercolor="#666666"
     borderopacity="1"
     objecttolerance="10"
     gridtolerance="10"
     guidetolerance="10"
     inkscape:pageopacity="0"
     inkscape:pageshadow="2"
     inkscape:window-width="1280"
     inkscape:window-height="741"
     id="namedview8072"
     showgrid="false"
     fit-margin-top="0"
     fit-margin-left="0"
     fit-margin-right="0"
     fit-margin-bottom="0"
     inkscape:zoom="7.8064589"
     inkscape:cx="-1.5176315"
     inkscape:cy="31.241721"
     inkscape:window-x="-8"
     inkscape:window-y="-8"
     inkscape:window-maximized="1"
     inkscape:current-layer="svg8068" /><path
     style="fill:#ffffff"
     d="m 15.273438,0.00390625 c -1.634125,0.006 -3.117188,0.01757813 -3.117188,0.01757813 0,0 -0.868391,0.14464059 -2.025391,1.18164062 l -0.04883,4.2460938 0.19336,0.3359374 -0.19336,0.3378907 c 0,0 -0.1922341,3.6675626 -0.2402341,4.1015621 -0.048,0.434 0.4804691,0.72461 0.4804691,0.72461 0,0 0.09647,2.121656 -0.144532,3.472656 -0.2419996,1.351 -1.1100934,4.389359 -1.4960934,6.318359 -0.386,1.929 0.048721,7.573875 0.3867188,8.296875 0.338,0.723 0.1933594,1.109375 0.1933594,1.109375 0,0 -0.436375,0.290079 -0.484375,0.580078 -0.048,0.289001 0.2910156,0.916016 0.2910156,0.916016 -1.833,3.618 -7.8624063,6.079313 -8.44140628,6.320313 C 0.04795512,38.203891 0,38.660156 0,38.660156 l 0,5.705078 0.11914062,0.326172 0.45898438,0.50586 0,0.0918 30.316406,0 0,-0.0918 0.457031,-0.50586 0.121094,-0.326172 0,-5.705078 c 0,0 -0.04795,-0.456265 -0.626953,-0.697265 -0.579,-0.241 -6.610359,-2.702313 -8.443359,-6.320313 0,0 0.339015,-0.626016 0.291015,-0.916016 -0.049,-0.289999 -0.482421,-0.580078 -0.482421,-0.580078 0,0 -0.146594,-0.386375 0.191406,-1.109375 0.338,-0.724 0.772719,-6.367875 0.386718,-8.296875 -0.385999,-1.93 -1.25414,-4.968359 -1.49414,-6.318359 -0.242,-1.351 -0.146484,-3.472656 -0.146484,-3.472656 0,0 0.531376,-0.29061 0.484374,-0.72461 -0.05,-0.4339995 0.05273,-4.1015621 0.05273,-4.1015621 L 21.492188,5.7851562 21.685547,5.4492188 21.636719,1.203125 c 0,0 -1.133844,-1.13264064 -2.339844,-1.18164062 -0.6035,-0.024 -2.389314,-0.02357813 -4.023437,-0.01757813 z"
     id="path21862" /><path
     style="fill:#ffd42a"
     d="M 0.578125 47.28125 L 0.578125 88.314453 L 30.894531 88.314453 L 30.894531 47.28125 L 0.578125 47.28125 z M 18.748047 55.724609 C 18.895703 55.710479 19.048469 55.726208 19.199219 55.773438 C 19.802219 55.962438 20.135672 56.602078 19.951172 57.205078 L 14.236328 75.492188 C 14.083328 75.982686 13.457186 76.419641 12.804688 76.244141 C 12.192686 76.077641 11.865686 75.4155 12.054688 74.8125 L 17.769531 56.525391 C 17.911281 56.069766 18.305078 55.767008 18.748047 55.724609 z M 10.287109 60.3125 C 10.579609 60.3125 10.872953 60.423734 11.095703 60.646484 C 11.541203 61.096484 11.541203 61.817578 11.095703 62.267578 L 7.328125 66.033203 L 11.089844 69.794922 C 11.535344 70.240422 11.535344 70.964656 11.089844 71.410156 C 10.738844 71.761156 9.8706094 71.806156 9.4746094 71.410156 L 4.9023438 66.833984 C 4.4568436 66.388484 4.4568436 65.66425 4.9023438 65.21875 L 9.4804688 60.646484 C 9.7032187 60.423734 9.9946102 60.3125 10.287109 60.3125 z M 21.716797 60.3125 C 22.009297 60.3125 22.302641 60.423734 22.525391 60.646484 L 27.097656 65.21875 C 27.543156 65.66875 27.543738 66.388484 27.09375 66.833984 L 22.521484 71.40625 C 22.125484 71.80225 21.25725 71.75725 20.90625 71.40625 C 20.46075 70.96075 20.46075 70.236516 20.90625 69.791016 L 24.671875 66.023438 L 20.910156 62.261719 C 20.464656 61.816219 20.464656 61.091984 20.910156 60.646484 C 21.132906 60.423734 21.424297 60.3125 21.716797 60.3125 z "
     id="path21860" /><path
     style="fill:#ffffff"
     d="m 0.578125,90.306641 0,0.189453 C 0.289125,90.932094 0,91.800781 0,91.800781 l 0.03710937,0.480469 c 0,0 -0.13357812,2.122438 0.10742188,4.148438 0.241,2.025 1.49609375,3.085937 1.49609375,3.085937 L 3.7636719,100 l 23.9472661,0 2.121093,-0.482422 c 0,0 1.255094,-1.060937 1.496094,-3.085937 0.241,-2.026 0.107422,-4.148438 0.107422,-4.148438 l 0.03711,-0.482422 c 0,0 -0.289125,-0.868687 -0.578125,-1.304687 l 0,-0.189453 -30.316406,0 z"
     id="path8070" /></svg>